REM DIRINDEX 1\2,1\4,1\5,1\6,1\7,1\3\8,1\3\9,1\3\10
REM DIRNAME cjc113,folder01,folder02,folder03,folder04,folder05,folder06,folder07,folder08,folder09
TITLE ""
FILE "DB4500_5th_6C_43.mp3" MP3
  TRACK 01 AUDIO
    TITLE "8:cjc113_5015"
    INDEX 01 00:00:00
  TRACK 02 AUDIO
    TITLE "0:"
    INDEX 01 00:02:43
  TRACK 03 AUDIO
    TITLE "9:cjc113_5016"
    INDEX 01 00:02:49
  TRACK 04 AUDIO
    TITLE "0:"
    INDEX 01 00:03:70
  TRACK 05 AUDIO
    TITLE "10:cjc113_5017"
    INDEX 01 00:04:03
  TRACK 06 AUDIO
    TITLE "0:"
    INDEX 01 00:07:60
  TRACK 07 AUDIO
    TITLE "8:cjc113_5018"
    INDEX 01 00:08:17
  TRACK 08 AUDIO
    TITLE "0:"
    INDEX 01 00:09:32
  TRACK 09 AUDIO
    TITLE "9:cjc113_5019"
    INDEX 01 00:09:42
  TRACK 10 AUDIO
    TITLE "0:"
    INDEX 01 00:11:03
  TRACK 11 AUDIO
    TITLE "10:cjc113_5020"
    INDEX 01 00:11:11
  TRACK 12 AUDIO
    TITLE "0:"
    INDEX 01 00:13:73
  TRACK 13 AUDIO
    TITLE "8:cjc113_5021"
    INDEX 01 00:14:29
  TRACK 14 AUDIO
    TITLE "0:"
    INDEX 01 00:15:48
  TRACK 15 AUDIO
    TITLE "9:cjc113_5022"
    INDEX 01 00:15:56
  TRACK 16 AUDIO
    TITLE "0:"
    INDEX 01 00:17:04
  TRACK 17 AUDIO
    TITLE "10:cjc113_5023"
    INDEX 01 00:17:10
  TRACK 18 AUDIO
    TITLE "0:"
    INDEX 01 00:20:26
  TRACK 19 AUDIO
    TITLE "8:cjc113_5024"
    INDEX 01 00:20:55
  TRACK 20 AUDIO
    TITLE "0:"
    INDEX 01 00:21:57
  TRACK 21 AUDIO
    TITLE "9:cjc113_5025"
    INDEX 01 00:21:66
  TRACK 22 AUDIO
    TITLE "0:"
    INDEX 01 00:22:68
  TRACK 23 AUDIO
    TITLE "10:cjc113_5026"
    INDEX 01 00:23:03
  TRACK 24 AUDIO
    TITLE "0:"
    INDEX 01 00:26:18
  TRACK 25 AUDIO
    TITLE "8:cjc113_5027"
    INDEX 01 00:26:48
  TRACK 26 AUDIO
    TITLE "0:"
    INDEX 01 00:27:55
  TRACK 27 AUDIO
    TITLE "9:cjc113_5028"
    INDEX 01 00:27:63
  TRACK 28 AUDIO
    TITLE "0:"
    INDEX 01 00:29:05
  TRACK 29 AUDIO
    TITLE "10:cjc113_5029"
    INDEX 01 00:29:07
  TRACK 30 AUDIO
    TITLE "0:"
    INDEX 01 00:32:05
  TRACK 31 AUDIO
    TITLE "8:cjc113_5030"
    INDEX 01 00:32:35
  TRACK 32 AUDIO
    TITLE "0:"
    INDEX 01 00:33:58
  TRACK 33 AUDIO
    TITLE "9:cjc113_5031"
    INDEX 01 00:33:69
  TRACK 34 AUDIO
    TITLE "0:"
    INDEX 01 00:35:19
  TRACK 35 AUDIO
    TITLE "10:cjc113_5032"
    INDEX 01 00:35:23
  TRACK 36 AUDIO
    TITLE "0:"
    INDEX 01 00:39:09
  TRACK 37 AUDIO
    TITLE "8:cjc113_5033"
    INDEX 01 00:39:39
  TRACK 38 AUDIO
    TITLE "0:"
    INDEX 01 00:40:66
  TRACK 39 AUDIO
    TITLE "9:cjc113_5034"
    INDEX 01 00:41:00
  TRACK 40 AUDIO
    TITLE "0:"
    INDEX 01 00:42:23
  TRACK 41 AUDIO
    TITLE "10:cjc113_5035"
    INDEX 01 00:42:31
  TRACK 42 AUDIO
    TITLE "0:"
    INDEX 01 00:45:04
  TRACK 43 AUDIO
    TITLE "8:cjc113_5036"
    INDEX 01 00:45:35
  TRACK 44 AUDIO
    TITLE "0:"
    INDEX 01 00:46:60
  TRACK 45 AUDIO
    TITLE "9:cjc113_5037"
    INDEX 01 00:46:68
  TRACK 46 AUDIO
    TITLE "0:"
    INDEX 01 00:49:16
  TRACK 47 AUDIO
    TITLE "10:cjc113_5038"
    INDEX 01 00:49:25
  TRACK 48 AUDIO
    TITLE "0:"
    INDEX 01 00:52:47
  TRACK 49 AUDIO
    TITLE "8:cjc113_5039"
    INDEX 01 00:53:02
  TRACK 50 AUDIO
    TITLE "0:"
    INDEX 01 00:54:19
  TRACK 51 AUDIO
    TITLE "9:cjc113_5040"
    INDEX 01 00:54:29
  TRACK 52 AUDIO
    TITLE "0:"
    INDEX 01 00:55:36
  TRACK 53 AUDIO
    TITLE "10:cjc113_5041"
    INDEX 01 00:55:44
  TRACK 54 AUDIO
    TITLE "0:"
    INDEX 01 00:58:44
  TRACK 55 AUDIO
    TITLE "10:cjc113_5042"
    INDEX 01 00:58:52
  TRACK 56 AUDIO
    TITLE "0:"
    INDEX 01 01:01:46
  TRACK 57 AUDIO
    TITLE "8:cjc113_5043"
    INDEX 01 01:02:03
  TRACK 58 AUDIO
    TITLE "0:"
    INDEX 01 01:03:14
  TRACK 59 AUDIO
    TITLE "9:cjc113_5044"
    INDEX 01 01:03:22
  TRACK 60 AUDIO
    TITLE "0:"
    INDEX 01 01:04:45
  TRACK 61 AUDIO
    TITLE "10:cjc113_5045"
    INDEX 01 01:04:54
  TRACK 62 AUDIO
    TITLE "0:"
    INDEX 01 01:07:63
  TRACK 63 AUDIO
    TITLE "8:cjc113_5046"
    INDEX 01 01:08:19
  TRACK 64 AUDIO
    TITLE "0:"
    INDEX 01 01:09:26
  TRACK 65 AUDIO
    TITLE "9:cjc113_5047"
    INDEX 01 01:09:34
  TRACK 66 AUDIO
    TITLE "0:"
    INDEX 01 01:10:41
  TRACK 67 AUDIO
    TITLE "10:cjc113_5048"
    INDEX 01 01:10:47
  TRACK 68 AUDIO
    TITLE "0:"
    INDEX 01 01:14:57
  TRACK 69 AUDIO
    TITLE "8:cjc113_5049"
    INDEX 01 01:15:15
  TRACK 70 AUDIO
    TITLE "0:"
    INDEX 01 01:16:24
  TRACK 71 AUDIO
    TITLE "9:cjc113_5050"
    INDEX 01 01:16:32
  TRACK 72 AUDIO
    TITLE "0:"
    INDEX 01 01:17:59
  TRACK 73 AUDIO
    TITLE "10:cjc113_5051"
    INDEX 01 01:17:63
  TRACK 74 AUDIO
    TITLE "0:"
    INDEX 01 01:21:41
